<svg width="42" height="40" viewBox="0 0 42 40" fill="none" xmlns="http://www.w3.org/2000/svg">
<path d="M41.4604 37.1096L31.9967 28.0812C34.5489 25.118 36.0734 21.3221 36.0734 17.1916C36.0734 7.69784 27.9971 0 18.0367 0C8.07626 0 0 7.69784 0 17.1916C0 26.6853 8.07626 34.3831 18.0367 34.3831C22.3874 34.3831 26.3785 32.9138 29.4959 30.4648L38.9596 39.4851C40.0644 40.4484 41.1007 39.828 41.4604 39.4851C42.1799 38.8076 42.1799 37.7872 41.4604 37.1096ZM3.51998 17.1916C3.51998 9.55087 10.0204 3.35505 18.0367 3.35505C26.053 3.35505 32.562 9.55087 32.562 17.1916C32.562 24.8323 26.0616 31.0281 18.0453 31.0281C10.029 31.0281 3.51998 24.8323 3.51998 17.1916Z" fill="black"/>
</svg>
